<svg width="576" height="287" viewBox="0 0 576 287" fill="none" xmlns="http://www.w3.org/2000/svg">
<g clip-path="url(#clip0)">
<path d="M717.173 -0.0287237C693.667 -60.4306 654.117 -113.269 602.787 -152.844C551.458 -192.419 490.297 -217.23 425.903 -224.599C361.509 -231.968 296.325 -221.617 237.382 -194.662C178.438 -167.707 127.973 -125.171 91.428 -71.6412C54.8834 -18.1118 33.6467 44.3792 30.0086 109.091C26.3705 173.804 40.469 238.281 70.7835 295.569C101.098 352.858 146.478 400.782 202.029 434.174C257.579 467.566 321.193 485.158 386.007 485.053L385.766 336.834C347.938 336.895 310.812 326.628 278.391 307.14C245.969 287.651 219.484 259.681 201.792 226.245C184.099 192.81 175.871 155.179 177.994 117.411C180.118 79.6431 192.512 43.1714 213.841 11.93C235.169 -19.3114 264.622 -44.1369 299.024 -59.8688C333.425 -75.6006 371.468 -81.6419 409.051 -77.3408C446.633 -73.0397 482.328 -58.5596 512.285 -35.4623C542.243 -12.365 565.326 18.4729 579.045 53.7253L717.173 -0.0287237Z" fill="#34495E" fill-opacity="0.08"/>
<path d="M372.906 108.02L661.291 148.397L482.131 377.958L372.906 108.02Z" fill="#34495E" fill-opacity="0.08"/>
</g>
<defs>
<clipPath id="clip0">
<rect width="576" height="287" fill="white"/>
</clipPath>
</defs>
</svg>
