<svg width="480" height="692" viewBox="0 0 480 692" fill="none" xmlns="http://www.w3.org/2000/svg">
<path fill-rule="evenodd" clip-rule="evenodd" d="M131.8 194.104C164.549 159.559 219.411 163.5 265.022 149.878C303.244 138.463 339.01 118.974 378.878 120.311C419.575 121.676 460.164 133.504 493.042 157.527C525.413 181.18 543.663 217.987 561.617 253.834C579.771 290.08 595.091 327.207 598.266 367.621C601.783 412.387 607.945 463.067 580.87 498.891C553.818 534.687 501.533 535.912 459.408 551.359C421.41 565.292 385.402 587.942 345.011 585.378C304.482 582.804 270.748 557.129 235.399 537.135C197.187 515.521 153.982 499.415 129.094 463.25C102.737 424.949 92.9784 377.351 93.4456 330.859C93.9297 282.697 98.6624 229.057 131.8 194.104Z" fill="#34495E"/>
</svg>
