<svg width="486" height="692" viewBox="0 0 486 692" fill="none" xmlns="http://www.w3.org/2000/svg">
<path fill-rule="evenodd" clip-rule="evenodd" d="M-94.5529 194.583C-61.8032 160.038 -6.94131 163.979 38.6694 150.357C76.8916 138.942 112.658 119.453 152.526 120.79C193.222 122.155 233.812 133.983 266.689 158.006C299.061 181.659 317.311 218.466 335.265 254.313C353.418 290.559 368.738 327.686 371.914 368.1C375.431 412.866 381.592 463.546 354.518 499.37C327.466 535.166 275.181 536.391 233.055 551.838C195.057 565.771 159.05 588.421 118.659 585.857C78.129 583.283 44.3956 557.608 9.04693 537.614C-29.1651 516 -72.3702 499.894 -97.2581 463.729C-123.616 425.428 -133.374 377.83 -132.907 331.338C-132.423 283.176 -127.69 229.536 -94.5529 194.583Z" fill="white"/>
</svg>
