<svg width="500" height="610" viewBox="0 0 500 610" fill="none" xmlns="http://www.w3.org/2000/svg">
<path d="M688.152 227.538C664.646 167.136 625.095 114.298 573.766 74.7224C522.436 35.1472 461.276 10.3368 396.882 2.96728C332.488 -4.40221 267.304 5.94888 208.36 32.9041C149.417 59.8593 98.9511 102.396 62.4065 155.925C25.8619 209.454 4.62521 271.945 0.987112 336.658C-2.65099 401.37 11.4476 465.847 41.7621 523.136C72.0766 580.424 117.457 628.349 173.007 661.741C228.558 695.133 292.171 712.725 356.985 712.619L356.744 564.4C318.917 564.462 281.79 554.194 249.369 534.706C216.948 515.217 190.463 487.247 172.77 453.812C155.078 420.377 146.85 382.745 148.973 344.977C151.096 307.209 163.491 270.738 184.819 239.496C206.148 208.255 235.601 183.429 270.002 167.698C304.403 151.966 342.447 145.924 380.029 150.225C417.611 154.527 453.306 169.007 483.264 192.104C513.221 215.201 536.304 246.039 550.023 281.292L688.152 227.538Z" fill="#34495E" fill-opacity="0.08"/>
<path d="M343.884 335.586L632.27 375.963L453.109 605.524L343.884 335.586Z" fill="#34495E" fill-opacity="0.08"/>
</svg>
