<svg width="30" height="32" viewBox="0 0 30 32" fill="none" xmlns="http://www.w3.org/2000/svg">
<path d="M29.5755 10.285C28.5646 7.68739 26.8638 5.4151 24.6564 3.71318C22.4489 2.01125 19.8188 0.944285 17.0495 0.627362C14.2803 0.310438 11.477 0.755585 8.94218 1.91479C6.40733 3.07399 4.23706 4.90326 2.66547 7.20528C1.09387 9.5073 0.180596 12.1947 0.0241399 14.9776C-0.132316 17.7606 0.473989 20.5334 1.77766 22.9971C3.08133 25.4608 5.03288 27.5218 7.42183 28.9578C9.81078 30.3938 12.5464 31.1503 15.3338 31.1458L15.3234 24.7717C13.6966 24.7743 12.1 24.3328 10.7058 23.4947C9.31149 22.6566 8.1725 21.4537 7.41164 20.0158C6.65078 18.578 6.29692 16.9596 6.38824 15.3354C6.47955 13.7112 7.01256 12.1428 7.92979 10.7992C8.84703 9.45571 10.1137 8.3881 11.5931 7.71155C13.0725 7.035 14.7085 6.7752 16.3248 6.96017C17.941 7.14514 19.476 7.76785 20.7643 8.76114C22.0527 9.75444 23.0453 11.0806 23.6353 12.5966L29.5755 10.285Z" fill="#34495E"/>
<path d="M14.7704 14.9316L27.1723 16.668L19.4676 26.5402L14.7704 14.9316Z" fill="#34495E"/>
</svg>
